<svg xmlns="http://www.w3.org/2000/svg" width="1280" height="760" viewBox="0 0 1280 760" role="img" aria-label="Weakest Highlighted Cohorts">
  <rect width="1280" height="760" fill="#f3f8ff"/>
  <rect x="40" y="36" width="1200" height="120" rx="28" fill="#ffffff" stroke="#dbeafe" stroke-width="2"/>
  <text x="74" y="92" fill="#0f172a" font-size="34" font-family="Segoe UI, Arial, sans-serif" font-weight="700">Weakest Highlighted Cohorts</text>
  <text x="74" y="128" fill="#64748b" font-size="19" font-family="Segoe UI, Arial, sans-serif">Twelve-month retention outcomes from the current warehouse snapshot</text>
  
  <text x="120" y="214" fill="#0f172a" font-size="18" font-family="Segoe UI, Arial, sans-serif">2024-07</text>
  <rect x="440" y="192" width="620" height="28" rx="14" fill="#f3f8ff" stroke="#dbeafe" stroke-width="1"/>
  <rect x="440" y="192" width="465.0" height="28" rx="14" fill="#0ea5e9"/>
  <text x="1078" y="214" fill="#1d4ed8" font-size="18" font-family="Segoe UI, Arial, sans-serif" font-weight="700">75.0%</text>

  <text x="120" y="286" fill="#0f172a" font-size="18" font-family="Segoe UI, Arial, sans-serif">2024-12</text>
  <rect x="440" y="264" width="620" height="28" rx="14" fill="#f3f8ff" stroke="#dbeafe" stroke-width="1"/>
  <rect x="440" y="264" width="487.1" height="28" rx="14" fill="#0ea5e9"/>
  <text x="1078" y="286" fill="#1d4ed8" font-size="18" font-family="Segoe UI, Arial, sans-serif" font-weight="700">78.6%</text>

  <text x="120" y="358" fill="#0f172a" font-size="18" font-family="Segoe UI, Arial, sans-serif">2024-03</text>
  <rect x="440" y="336" width="620" height="28" rx="14" fill="#f3f8ff" stroke="#dbeafe" stroke-width="1"/>
  <rect x="440" y="336" width="496.0" height="28" rx="14" fill="#0ea5e9"/>
  <text x="1078" y="358" fill="#1d4ed8" font-size="18" font-family="Segoe UI, Arial, sans-serif" font-weight="700">80.0%</text>

  <text x="120" y="430" fill="#0f172a" font-size="18" font-family="Segoe UI, Arial, sans-serif">2024-10</text>
  <rect x="440" y="408" width="620" height="28" rx="14" fill="#f3f8ff" stroke="#dbeafe" stroke-width="1"/>
  <rect x="440" y="408" width="516.6" height="28" rx="14" fill="#0ea5e9"/>
  <text x="1078" y="430" fill="#1d4ed8" font-size="18" font-family="Segoe UI, Arial, sans-serif" font-weight="700">83.3%</text>

  <text x="120" y="502" fill="#0f172a" font-size="18" font-family="Segoe UI, Arial, sans-serif">2024-02</text>
  <rect x="440" y="480" width="620" height="28" rx="14" fill="#f3f8ff" stroke="#dbeafe" stroke-width="1"/>
  <rect x="440" y="480" width="537.4" height="28" rx="14" fill="#0ea5e9"/>
  <text x="1078" y="502" fill="#1d4ed8" font-size="18" font-family="Segoe UI, Arial, sans-serif" font-weight="700">86.7%</text>

  <rect x="74" y="646" width="1132" height="72" rx="24" fill="#ffffff" stroke="#dbeafe" stroke-width="1.5"/>
  <text x="100" y="692" fill="#64748b" font-size="18" font-family="Segoe UI, Arial, sans-serif">Lower retention percentages show where deeper cohort investigation is needed across onboarding, pricing, or adoption patterns.</text>
</svg>
